# xmcd CD database file
#
# Track frame offsets:
#	150
#	8325
#	24450
#	46125
#	70725
#	88050
#	109725
#	130575
#	135168
#	159074
#	180036
#
# Disc length: 2682 seconds
#
# Revision: 0
# Processed by: cddbd v1.5.2PL0 Copyright (c) Steve Scherf et al.
# Submitted via: CDex 1.70beta2
#
DISCID=6a0a780b
DTITLE=UI-70 - riddles covered in flowers
DYEAR=2008
DGENRE=東方アレンジ
TTITLE0=Introduction/prayers
TTITLE1=人恋し神様～romantic fall
TTITLE2=幽霊楽団～phantom ensemble
TTITLE3=神々が恋した幻想郷
TTITLE4=恋色マスタースパーク
TTITLE5=芥川龍之介の河童～candid friend
TTITLE6=少女幻葬～necro fantasy
TTITLE7=千年幻想郷-prelude
TTITLE8=千年幻想郷～history of the moon
TTITLE9=竹取飛翔～lunatic princess
TTITLE10=神さびた古戦場～suwa foughten field
EXTD=YEAR: 2008
EXTT0=
EXTT1=
EXTT2=
EXTT3=
EXTT4=
EXTT5=
EXTT6=
EXTT7=
EXTT8=
EXTT9=
EXTT10=
PLAYORDER=
